<svg version="1.1" id="Layer_1" xmlns:x="ns_extend;" xmlns:i="ns_ai;" xmlns:graph="ns_graphs;" xmlns="http://www.w3.org/2000/svg" xmlns:xlink="http://www.w3.org/1999/xlink" x="0px" y="0px" viewBox="0 0 51.3 51.6" style="enable-background:new 0 0 51.3 51.6;" xml:space="preserve">
 <style type="text/css">
  .st0{fill:#FFFFFF;}
 </style>
 <metadata>
  <sfw xmlns="ns_sfw;">
   <slices>
   </slices>
   <sliceSourceBounds bottomLeftOrigin="true" height="51.6" width="51.3" x="-118.8" y="2.6">
   </sliceSourceBounds>
  </sfw>
 </metadata>
 <g>
  <g>
   <path class="st0" d="M25.7,51.6C11.5,51.6,0,40,0,25.8S11.5,0,25.7,0c14.2,0,25.7,11.6,25.7,25.8S39.8,51.6,25.7,51.6z M25.7,1.6
			C12.4,1.6,1.6,12.5,1.6,25.8C1.6,39.1,12.4,50,25.7,50s24.1-10.9,24.1-24.2C49.7,12.5,38.9,1.6,25.7,1.6z">
   </path>
  </g>
  <path class="st0" d="M25.3,42.1h0.9c8.5,0,15.4-6.6,15.7-15.3c0-0.5-0.4-0.9-0.8-0.9H10.5c-0.5,0-0.8,0.4-0.8,0.9
		C9.9,35.5,16.8,42.1,25.3,42.1z">
  </path>
 </g>
</svg>